<svg width="24" height="24" viewBox="0 0 24 24" fill="none" xmlns="http://www.w3.org/2000/svg">
<path d="M3.40571 20.9141L21.4057 12.9141C21.5826 12.8356 21.7329 12.7075 21.8384 12.5452C21.9439 12.383 22 12.1936 22 12.0001C22 11.8066 21.9439 11.6173 21.8384 11.455C21.7329 11.2928 21.5826 11.1646 21.4057 11.0861L3.40571 3.08613C3.23443 3.01003 3.04521 2.98361 2.85963 3.00986C2.67406 3.03611 2.49959 3.11399 2.35614 3.23461C2.21268 3.35524 2.10602 3.51374 2.0483 3.69206C1.99059 3.87038 1.98415 4.06133 2.02971 4.24313L3.71871 11.0001L12.9997 11.0001C13.2649 11.0001 13.5193 11.1055 13.7068 11.293C13.8944 11.4806 13.9997 11.7349 13.9997 12.0001C13.9997 12.2653 13.8944 12.5197 13.7068 12.7072C13.5193 12.8948 13.2649 13.0001 12.9997 13.0001L3.71871 13.0001L2.02971 19.7581C1.98439 19.9399 1.99101 20.1307 2.04883 20.3088C2.10665 20.487 2.21334 20.6453 2.35674 20.7658C2.50015 20.8863 2.67452 20.9641 2.85997 20.9903C3.04543 21.0165 3.23452 20.9901 3.40571 20.9141Z" fill="#838383"/>
</svg>
