<svg width="24" height="24" viewBox="0 0 19 19" fill="none" xmlns="http://www.w3.org/2000/svg">
<g clip-path="url(#clip0_404_17900)">
<path d="M2.66699 4.66675V8.66675H6.66699" stroke="white" stroke-width="2" stroke-linecap="round" stroke-linejoin="round"/>
<path d="M4.34033 11.9999C4.77259 13.2268 5.59188 14.28 6.67476 15.0008C7.75764 15.7216 9.04545 16.0709 10.3441 15.9962C11.6428 15.9215 12.882 15.4267 13.8751 14.5864C14.8681 13.7461 15.5612 12.6059 15.8498 11.3375C16.1385 10.069 16.0071 8.74119 15.4754 7.55395C14.9438 6.36671 14.0407 5.38441 12.9022 4.75506C11.7638 4.12571 10.4516 3.88339 9.16344 4.06463C7.87529 4.24586 6.68093 4.84083 5.76033 5.75988L2.66699 8.66655" stroke="white" stroke-width="2" stroke-linecap="round" stroke-linejoin="round"/>
</g>
<defs>
<clipPath id="clip0_404_17900">
<rect width="16" height="16" fill="white" transform="translate(2 2)"/>
</clipPath>
</defs>
</svg>
