<svg width="20" height="20" viewBox="0 0 20 20" fill="none" xmlns="http://www.w3.org/2000/svg">
<path d="M16.6667 5.17479H13.3333V3.4204C13.3333 2.95511 13.1577 2.50887 12.8452 2.17986C12.5326 1.85085 12.1087 1.66602 11.6667 1.66602H8.33333C7.89131 1.66602 7.46738 1.85085 7.15482 2.17986C6.84226 2.50887 6.66667 2.95511 6.66667 3.4204V5.17479H3.33333C3.11232 5.17479 2.90036 5.26721 2.74408 5.43171C2.5878 5.59622 2.5 5.81933 2.5 6.05198C2.5 6.28463 2.5878 6.50774 2.74408 6.67225C2.90036 6.83676 3.11232 6.92917 3.33333 6.92917H4.16667V16.5783C4.16667 17.0436 4.34226 17.4898 4.65482 17.8188C4.96738 18.1478 5.39131 18.3327 5.83333 18.3327H14.1667C14.6087 18.3327 15.0326 18.1478 15.3452 17.8188C15.6577 17.4898 15.8333 17.0436 15.8333 16.5783V6.92917H16.6667C16.8877 6.92917 17.0996 6.83676 17.2559 6.67225C17.4122 6.50774 17.5 6.28463 17.5 6.05198C17.5 5.81933 17.4122 5.59622 17.2559 5.43171C17.0996 5.26721 16.8877 5.17479 16.6667 5.17479ZM8.33333 3.4204H11.6667V5.17479H8.33333V3.4204ZM14.1667 16.5783H5.83333V6.92917H14.1667V16.5783Z" fill="#E1E3E6"/>
<path d="M8.33333 7.80637C8.11232 7.80637 7.90036 7.89879 7.74408 8.06329C7.5878 8.2278 7.5 8.45091 7.5 8.68356V14.8239C7.5 15.0566 7.5878 15.2797 7.74408 15.4442C7.90036 15.6087 8.11232 15.7011 8.33333 15.7011C8.55435 15.7011 8.76631 15.6087 8.92259 15.4442C9.07887 15.2797 9.16667 15.0566 9.16667 14.8239V8.68356C9.16667 8.45091 9.07887 8.2278 8.92259 8.06329C8.76631 7.89879 8.55435 7.80637 8.33333 7.80637Z" fill="#E1E3E6"/>
<path d="M11.6667 7.80637C11.4457 7.80637 11.2337 7.89879 11.0774 8.06329C10.9211 8.2278 10.8333 8.45091 10.8333 8.68356V14.8239C10.8333 15.0566 10.9211 15.2797 11.0774 15.4442C11.2337 15.6087 11.4457 15.7011 11.6667 15.7011C11.8877 15.7011 12.0996 15.6087 12.2559 15.4442C12.4122 15.2797 12.5 15.0566 12.5 14.8239V8.68356C12.5 8.45091 12.4122 8.2278 12.2559 8.06329C12.0996 7.89879 11.8877 7.80637 11.6667 7.80637Z" fill="#E1E3E6"/>
</svg>
